<svg width="289" height="222" viewBox="0 0 289 222" fill="none" xmlns="http://www.w3.org/2000/svg">
<rect width="289" height="222" rx="20" fill="#436185"/>
<rect x="14" y="28" width="261" height="165" rx="6" fill="#FBF4EE"/>
<path d="M100.66 55V41H107.5C109.26 41 110.58 41.3333 111.46 42C112.353 42.6667 112.8 43.5467 112.8 44.64C112.8 45.3733 112.62 46.0133 112.26 46.56C111.9 47.0933 111.407 47.5067 110.78 47.8C110.153 48.0933 109.433 48.24 108.62 48.24L109 47.42C109.88 47.42 110.66 47.5667 111.34 47.86C112.02 48.14 112.547 48.56 112.92 49.12C113.307 49.68 113.5 50.3667 113.5 51.18C113.5 52.38 113.027 53.32 112.08 54C111.133 54.6667 109.74 55 107.9 55H100.66ZM103.88 52.56H107.66C108.5 52.56 109.133 52.4267 109.56 52.16C110 51.88 110.22 51.44 110.22 50.84C110.22 50.2533 110 49.82 109.56 49.54C109.133 49.2467 108.5 49.1 107.66 49.1H103.64V46.74H107.1C107.887 46.74 108.487 46.6067 108.9 46.34C109.327 46.06 109.54 45.64 109.54 45.08C109.54 44.5333 109.327 44.1267 108.9 43.86C108.487 43.58 107.887 43.44 107.1 43.44H103.88V52.56ZM119.215 55L114.635 41H117.995L121.975 53.4H120.295L124.455 41H127.455L131.455 53.4H129.835L133.915 41H137.015L132.435 55H128.955L125.415 44.12H126.335L122.695 55H119.215ZM143.143 55.16C141.917 55.16 140.837 54.92 139.903 54.44C138.983 53.96 138.27 53.3067 137.763 52.48C137.257 51.64 137.003 50.6867 137.003 49.62C137.003 48.54 137.25 47.5867 137.743 46.76C138.25 45.92 138.937 45.2667 139.803 44.8C140.67 44.32 141.65 44.08 142.743 44.08C143.797 44.08 144.743 44.3067 145.583 44.76C146.437 45.2 147.11 45.84 147.603 46.68C148.097 47.5067 148.343 48.5 148.343 49.66C148.343 49.78 148.337 49.92 148.323 50.08C148.31 50.2267 148.297 50.3667 148.283 50.5H139.543V48.68H146.643L145.443 49.22C145.443 48.66 145.33 48.1733 145.103 47.76C144.877 47.3467 144.563 47.0267 144.163 46.8C143.763 46.56 143.297 46.44 142.763 46.44C142.23 46.44 141.757 46.56 141.343 46.8C140.943 47.0267 140.63 47.3533 140.403 47.78C140.177 48.1933 140.063 48.6867 140.063 49.26V49.74C140.063 50.3267 140.19 50.8467 140.443 51.3C140.71 51.74 141.077 52.08 141.543 52.32C142.023 52.5467 142.583 52.66 143.223 52.66C143.797 52.66 144.297 52.5733 144.723 52.4C145.163 52.2267 145.563 51.9667 145.923 51.62L147.583 53.42C147.09 53.98 146.47 54.4133 145.723 54.72C144.977 55.0133 144.117 55.16 143.143 55.16ZM156.728 55V52.9L156.528 52.44V48.68C156.528 48.0133 156.321 47.4933 155.908 47.12C155.508 46.7467 154.888 46.56 154.048 46.56C153.474 46.56 152.908 46.6533 152.348 46.84C151.801 47.0133 151.334 47.2533 150.948 47.56L149.828 45.38C150.414 44.9667 151.121 44.6467 151.948 44.42C152.774 44.1933 153.614 44.08 154.468 44.08C156.108 44.08 157.381 44.4667 158.288 45.24C159.194 46.0133 159.648 47.22 159.648 48.86V55H156.728ZM153.448 55.16C152.608 55.16 151.888 55.02 151.288 54.74C150.688 54.4467 150.228 54.0533 149.908 53.56C149.588 53.0667 149.428 52.5133 149.428 51.9C149.428 51.26 149.581 50.7 149.888 50.22C150.208 49.74 150.708 49.3667 151.388 49.1C152.068 48.82 152.954 48.68 154.048 48.68H156.908V50.5H154.388C153.654 50.5 153.148 50.62 152.868 50.86C152.601 51.1 152.468 51.4 152.468 51.76C152.468 52.16 152.621 52.48 152.928 52.72C153.248 52.9467 153.681 53.06 154.228 53.06C154.748 53.06 155.214 52.94 155.628 52.7C156.041 52.4467 156.341 52.08 156.528 51.6L157.008 53.04C156.781 53.7333 156.368 54.26 155.768 54.62C155.168 54.98 154.394 55.16 153.448 55.16ZM162.471 55V40.16H165.591V55H162.471ZM173.688 55.16C172.421 55.16 171.434 54.84 170.728 54.2C170.021 53.5467 169.668 52.58 169.668 51.3V41.86H172.788V51.26C172.788 51.7133 172.908 52.0667 173.148 52.32C173.388 52.56 173.714 52.68 174.128 52.68C174.621 52.68 175.041 52.5467 175.388 52.28L176.228 54.48C175.908 54.7067 175.521 54.88 175.068 55C174.628 55.1067 174.168 55.16 173.688 55.16ZM168.008 46.88V44.48H175.468V46.88H168.008ZM184.519 44.08C185.372 44.08 186.132 44.2533 186.799 44.6C187.479 44.9333 188.012 45.4533 188.399 46.16C188.786 46.8533 188.979 47.7467 188.979 48.84V55H185.859V49.32C185.859 48.4533 185.666 47.8133 185.279 47.4C184.906 46.9867 184.372 46.78 183.679 46.78C183.186 46.78 182.739 46.8867 182.339 47.1C181.952 47.3 181.646 47.6133 181.419 48.04C181.206 48.4667 181.099 49.0133 181.099 49.68V55H177.979V40.16H181.099V47.22L180.399 46.32C180.786 45.6 181.339 45.0467 182.059 44.66C182.779 44.2733 183.599 44.08 184.519 44.08Z" fill="#09245E"/>
<circle cx="243" cy="14" r="6" fill="#D9D9D9"/>
<circle cx="243" cy="14" r="6" fill="#D9D9D9"/>
<circle cx="201" cy="14" r="6" fill="#D9D9D9"/>
<circle cx="201" cy="14" r="6" fill="#D9D9D9"/>
<circle cx="222" cy="14" r="6" fill="#D9D9D9"/>
<circle cx="222" cy="14" r="6" fill="#D9D9D9"/>
<rect x="110" y="70" width="148" height="21" rx="10.5" fill="#87D0BF"/>
<rect x="110.5" y="96.5" width="147" height="20" rx="10" stroke="black"/>
<rect x="109.5" y="122.5" width="147" height="20" rx="10" stroke="black"/>
<rect x="109" y="151" width="70" height="21" rx="10.5" fill="#84ACD4"/>
<rect x="185" y="151" width="72" height="21" rx="10.5" fill="#FCA59C"/>
<rect x="120" y="102" width="45" height="10" fill="#404040" fill-opacity="0.79"/>
<rect x="183" y="102" width="11" height="10" fill="#404040"/>
<rect x="120" y="157" width="47" height="10" fill="#EDE8E4" fill-opacity="0.57"/>
<rect x="32" y="69" width="66" height="28" rx="14" fill="#84ACD4"/>
<rect x="51" y="78" width="28" height="10" fill="#EDE8E4" fill-opacity="0.57"/>
<rect x="32" y="107" width="66" height="28" rx="14" fill="#84ACD4"/>
<rect x="51" y="116" width="28" height="10" fill="#EDE8E4" fill-opacity="0.57"/>
<rect x="32" y="145" width="66" height="28" rx="14" fill="#84ACD4"/>
<rect x="51" y="154" width="28" height="10" fill="#EDE8E4" fill-opacity="0.57"/>
<rect x="198" y="157" width="47" height="10" fill="#EDE8E4" fill-opacity="0.57"/>
<rect x="147" y="76" width="79" height="10" fill="#EDE8E4" fill-opacity="0.57"/>
<rect x="120" y="128" width="39" height="10" fill="#404040" fill-opacity="0.79"/>
<rect x="183" y="128" width="11" height="10" fill="#404040" fill-opacity="0.79"/>
</svg>
