<svg width="483" height="644" viewBox="0 0 483 644" fill="none" xmlns="http://www.w3.org/2000/svg">
<g filter="url(#filter0_i_25_7)">
<path d="M216.375 369.187C292.005 313.483 431.875 305.687 456.375 330.187C474.375 373.687 422.5 468.5 337 538C249.488 580.812 205.72 583.661 136.875 549.687C122.205 482.068 143.378 442.312 216.375 369.187Z" fill="#447D86"/>
</g>
<g filter="url(#filter1_d_25_7)">
<path d="M212.5 482.5L137.5 548.5C209.719 585.87 258.66 577.633 337 538C264.764 531.802 238.917 522.257 212.5 482.5Z" fill="#447D86"/>
</g>
<g filter="url(#filter2_di_25_7)">
<path d="M258.414 345.555C232.914 390.555 227.749 413.431 240 470.5L137.5 547.5C113.453 473.971 181.853 377.446 258.414 345.555Z" fill="#447D86"/>
</g>
<g filter="url(#filter3_f_25_7)">
<ellipse cx="355.715" cy="112.882" rx="16.5" ry="84.5618" transform="rotate(51.1623 355.715 112.882)" fill="#98C6BB"/>
</g>
<g filter="url(#filter4_f_25_7)">
<ellipse cx="306.157" cy="453.369" rx="37.7619" ry="178.765" transform="rotate(56.7649 306.157 453.369)" fill="#78B0A7"/>
</g>
<g filter="url(#filter5_f_25_7)">
<path d="M147.5 544C245.951 467.972 288.967 437.35 398 372.5" stroke="#2F5A6F" stroke-width="16" stroke-linecap="round"/>
</g>
<g filter="url(#filter6_di_25_7)">
<path d="M45 627.5C146.5 515 180 489.5 421.5 349.5L455.5 335.5L411.5 360.5C257.5 456 184.907 491.108 51.3158 635.5L45 627.5Z" fill="#669492"/>
</g>
<g filter="url(#filter7_i_25_7)">
<path d="M265.875 38.9725C227.999 87.063 225.296 116.957 241.875 180.554C274.535 196.384 298.375 191.054 353.375 168.554C392.892 150.116 424.674 115.794 448.875 59.054C468.875 28.054 461.927 10.6538 431.875 5.05401C341.656 -5.30008 309.468 -2.36992 265.875 38.9725Z" fill="#669492"/>
</g>
<g filter="url(#filter8_f_25_7)">
<path d="M175 347.833C170.062 352.866 4.12895 501.454 2 508.5V516L177.5 350.833C201.984 325.769 216.869 312.41 243 288.333L263.5 265.333C269.708 266.525 274.562 268.304 280.5 265.333C287.479 261.843 293.238 253.35 291 248.333C289 243.85 274.872 240.281 267.5 245.833C261.677 250.22 261.24 255.372 261 263.333L241.5 285.833C229.946 295.844 226.6 299.764 210.5 313.333L175 347.833Z" fill="#204C6F"/>
<path d="M240.5 311.833C235.558 308.316 229.345 308.172 225 312.833C223.438 319.035 224.123 323.49 228.5 327.333C232.924 331.218 240.66 332.017 243.5 328.833C247.5 324.35 245.992 315.743 240.5 311.833Z" fill="#204C6F"/>
<path d="M267.5 287.833C262.179 283.844 252.269 286.35 250.5 288.833C248.5 291.642 250.542 302.864 257 305.833C262.428 308.329 268.5 308.493 272 302.833C275.5 297.174 272.393 291.502 267.5 287.833Z" fill="#204C6F"/>
</g>
<g filter="url(#filter9_di_25_7)">
<path d="M309.5 10C295.846 45.5 295.053 95.6931 300.5 114L244.5 179C210.5 98 255.5 27 309.5 10Z" fill="#669492"/>
</g>
<g filter="url(#filter10_d_25_7)">
<path d="M367 162.5C320 159 300.686 150.665 287 131C266.25 152.939 262.97 157.918 247 184C281.481 196.741 310.299 189.649 367 162.5Z" fill="#669492"/>
</g>
<g filter="url(#filter11_f_25_7)">
<path d="M258.5 170.5C307.067 112.604 357.257 73.9488 422.5 40.5" stroke="#426A72" stroke-width="13" stroke-linecap="round"/>
</g>
<g filter="url(#filter12_di_25_7)">
<path d="M432 30H438.5C373.186 62.2999 324.04 93.8899 287.214 133.5C285.678 135.152 284.163 136.819 282.669 138.5C241.924 184.354 216.924 241.066 202 321.5L195.5 327.5L196 320C210.852 227.468 244.574 164.481 294 117.059C297.105 114.08 300.272 111.162 303.5 108.302C339.202 76.6748 382.39 52.1369 432 30Z" fill="url(#paint0_linear_25_7)"/>
</g>
<g filter="url(#filter13_f_25_7)">
<path d="M441.61 39.1654L403.783 42.9197L434.775 9.98438L441.61 39.1654Z" fill="#93BBB3"/>
</g>
<g filter="url(#filter14_f_25_7)">
<path d="M433.059 341.052L454.085 326.637L460.968 342.401L433.059 341.052Z" fill="#ADDBCA"/>
</g>
<path d="M200.702 294.5C198.009 305.82 194.636 327.698 195.702 327.5L201.702 323L208.202 292L200.702 294.5Z" fill="url(#paint1_linear_25_7)"/>
<defs>
<filter id="filter0_i_25_7" x="132.5" y="317" width="375.934" height="303.896" filterUnits="userSpaceOnUse" color-interpolation-filters="sRGB">
<feFlood flood-opacity="0" result="BackgroundImageFix"/>
<feBlend mode="normal" in="SourceGraphic" in2="BackgroundImageFix" result="shape"/>
<feColorMatrix in="SourceAlpha" type="matrix" values="0 0 0 0 0 0 0 0 0 0 0 0 0 0 0 0 0 0 127 0" result="hardAlpha"/>
<feOffset dx="50" dy="48"/>
<feGaussianBlur stdDeviation="24.25"/>
<feComposite in2="hardAlpha" operator="arithmetic" k2="-1" k3="1"/>
<feColorMatrix type="matrix" values="0 0 0 0 0.713726 0 0 0 0 0.890196 0 0 0 0 0.811765 0 0 0 1 0"/>
<feBlend mode="normal" in2="shape" result="effect1_innerShadow_25_7"/>
</filter>
<filter id="filter1_d_25_7" x="134.5" y="477.5" width="207.5" height="98.0502" filterUnits="userSpaceOnUse" color-interpolation-filters="sRGB">
<feFlood flood-opacity="0" result="BackgroundImageFix"/>
<feColorMatrix in="SourceAlpha" type="matrix" values="0 0 0 0 0 0 0 0 0 0 0 0 0 0 0 0 0 0 127 0" result="hardAlpha"/>
<feOffset dx="1" dy="-1"/>
<feGaussianBlur stdDeviation="2"/>
<feComposite in2="hardAlpha" operator="out"/>
<feColorMatrix type="matrix" values="0 0 0 0 0 0 0 0 0 0 0 0 0 0 0 0 0 0 0.25 0"/>
<feBlend mode="normal" in2="BackgroundImageFix" result="effect1_dropShadow_25_7"/>
<feBlend mode="normal" in="SourceGraphic" in2="effect1_dropShadow_25_7" result="shape"/>
</filter>
<filter id="filter2_di_25_7" x="130.604" y="342.555" width="133.81" height="246.045" filterUnits="userSpaceOnUse" color-interpolation-filters="sRGB">
<feFlood flood-opacity="0" result="BackgroundImageFix"/>
<feColorMatrix in="SourceAlpha" type="matrix" values="0 0 0 0 0 0 0 0 0 0 0 0 0 0 0 0 0 0 127 0" result="hardAlpha"/>
<feOffset dx="2" dy="1"/>
<feGaussianBlur stdDeviation="2"/>
<feComposite in2="hardAlpha" operator="out"/>
<feColorMatrix type="matrix" values="0 0 0 0 0 0 0 0 0 0 0 0 0 0 0 0 0 0 0.25 0"/>
<feBlend mode="normal" in2="BackgroundImageFix" result="effect1_dropShadow_25_7"/>
<feBlend mode="normal" in="SourceGraphic" in2="effect1_dropShadow_25_7" result="shape"/>
<feColorMatrix in="SourceAlpha" type="matrix" values="0 0 0 0 0 0 0 0 0 0 0 0 0 0 0 0 0 0 127 0" result="hardAlpha"/>
<feOffset dx="5" dy="73"/>
<feGaussianBlur stdDeviation="20.55"/>
<feComposite in2="hardAlpha" operator="arithmetic" k2="-1" k3="1"/>
<feColorMatrix type="matrix" values="0 0 0 0 0.709804 0 0 0 0 0.886275 0 0 0 0 0.811765 0 0 0 1 0"/>
<feBlend mode="normal" in2="shape" result="effect2_innerShadow_25_7"/>
</filter>
<filter id="filter3_f_25_7" x="270.53" y="39.8044" width="170.37" height="146.156" filterUnits="userSpaceOnUse" color-interpolation-filters="sRGB">
<feFlood flood-opacity="0" result="BackgroundImageFix"/>
<feBlend mode="normal" in="SourceGraphic" in2="BackgroundImageFix" result="shape"/>
<feGaussianBlur stdDeviation="9.25" result="effect1_foregroundBlur_25_7"/>
</filter>
<filter id="filter4_f_25_7" x="130.189" y="325.399" width="351.937" height="255.939" filterUnits="userSpaceOnUse" color-interpolation-filters="sRGB">
<feFlood flood-opacity="0" result="BackgroundImageFix"/>
<feBlend mode="normal" in="SourceGraphic" in2="BackgroundImageFix" result="shape"/>
<feGaussianBlur stdDeviation="12.5" result="effect1_foregroundBlur_25_7"/>
</filter>
<filter id="filter5_f_25_7" x="118.8" y="343.799" width="307.902" height="228.902" filterUnits="userSpaceOnUse" color-interpolation-filters="sRGB">
<feFlood flood-opacity="0" result="BackgroundImageFix"/>
<feBlend mode="normal" in="SourceGraphic" in2="BackgroundImageFix" result="shape"/>
<feGaussianBlur stdDeviation="10.35" result="effect1_foregroundBlur_25_7"/>
</filter>
<filter id="filter6_di_25_7" x="41" y="335.5" width="418.5" height="308" filterUnits="userSpaceOnUse" color-interpolation-filters="sRGB">
<feFlood flood-opacity="0" result="BackgroundImageFix"/>
<feColorMatrix in="SourceAlpha" type="matrix" values="0 0 0 0 0 0 0 0 0 0 0 0 0 0 0 0 0 0 127 0" result="hardAlpha"/>
<feOffset dy="4"/>
<feGaussianBlur stdDeviation="2"/>
<feComposite in2="hardAlpha" operator="out"/>
<feColorMatrix type="matrix" values="0 0 0 0 0 0 0 0 0 0 0 0 0 0 0 0 0 0 0.25 0"/>
<feBlend mode="normal" in2="BackgroundImageFix" result="effect1_dropShadow_25_7"/>
<feBlend mode="normal" in="SourceGraphic" in2="effect1_dropShadow_25_7" result="shape"/>
<feColorMatrix in="SourceAlpha" type="matrix" values="0 0 0 0 0 0 0 0 0 0 0 0 0 0 0 0 0 0 127 0" result="hardAlpha"/>
<feOffset dy="4"/>
<feGaussianBlur stdDeviation="2"/>
<feComposite in2="hardAlpha" operator="arithmetic" k2="-1" k3="1"/>
<feColorMatrix type="matrix" values="0 0 0 0 0.713726 0 0 0 0 0.890196 0 0 0 0 0.811765 0 0 0 1 0"/>
<feBlend mode="normal" in2="shape" result="effect2_innerShadow_25_7"/>
</filter>
<filter id="filter7_i_25_7" x="232.196" y="0" width="251.016" height="212.657" filterUnits="userSpaceOnUse" color-interpolation-filters="sRGB">
<feFlood flood-opacity="0" result="BackgroundImageFix"/>
<feBlend mode="normal" in="SourceGraphic" in2="BackgroundImageFix" result="shape"/>
<feColorMatrix in="SourceAlpha" type="matrix" values="0 0 0 0 0 0 0 0 0 0 0 0 0 0 0 0 0 0 127 0" result="hardAlpha"/>
<feOffset dx="23" dy="23"/>
<feGaussianBlur stdDeviation="27.35"/>
<feComposite in2="hardAlpha" operator="arithmetic" k2="-1" k3="1"/>
<feColorMatrix type="matrix" values="0 0 0 0 0.768627 0 0 0 0 0.901961 0 0 0 0 0.847059 0 0 0 1 0"/>
<feBlend mode="normal" in2="shape" result="effect1_innerShadow_25_7"/>
</filter>
<filter id="filter8_f_25_7" x="0.9" y="241.9" width="291.69" height="275.2" filterUnits="userSpaceOnUse" color-interpolation-filters="sRGB">
<feFlood flood-opacity="0" result="BackgroundImageFix"/>
<feBlend mode="normal" in="SourceGraphic" in2="BackgroundImageFix" result="shape"/>
<feGaussianBlur stdDeviation="0.55" result="effect1_foregroundBlur_25_7"/>
</filter>
<filter id="filter9_di_25_7" x="230.703" y="7" width="101.797" height="202" filterUnits="userSpaceOnUse" color-interpolation-filters="sRGB">
<feFlood flood-opacity="0" result="BackgroundImageFix"/>
<feColorMatrix in="SourceAlpha" type="matrix" values="0 0 0 0 0 0 0 0 0 0 0 0 0 0 0 0 0 0 127 0" result="hardAlpha"/>
<feOffset dx="2" dy="1"/>
<feGaussianBlur stdDeviation="2"/>
<feComposite in2="hardAlpha" operator="out"/>
<feColorMatrix type="matrix" values="0 0 0 0 0 0 0 0 0 0 0 0 0 0 0 0 0 0 0.25 0"/>
<feBlend mode="normal" in2="BackgroundImageFix" result="effect1_dropShadow_25_7"/>
<feBlend mode="normal" in="SourceGraphic" in2="effect1_dropShadow_25_7" result="shape"/>
<feColorMatrix in="SourceAlpha" type="matrix" values="0 0 0 0 0 0 0 0 0 0 0 0 0 0 0 0 0 0 127 0" result="hardAlpha"/>
<feOffset dx="23" dy="42"/>
<feGaussianBlur stdDeviation="15"/>
<feComposite in2="hardAlpha" operator="arithmetic" k2="-1" k3="1"/>
<feColorMatrix type="matrix" values="0 0 0 0 0.713726 0 0 0 0 0.854902 0 0 0 0 0.803922 0 0 0 1 0"/>
<feBlend mode="normal" in2="shape" result="effect2_innerShadow_25_7"/>
</filter>
<filter id="filter10_d_25_7" x="243" y="126" width="128" height="67.1313" filterUnits="userSpaceOnUse" color-interpolation-filters="sRGB">
<feFlood flood-opacity="0" result="BackgroundImageFix"/>
<feColorMatrix in="SourceAlpha" type="matrix" values="0 0 0 0 0 0 0 0 0 0 0 0 0 0 0 0 0 0 127 0" result="hardAlpha"/>
<feOffset dy="-1"/>
<feGaussianBlur stdDeviation="2"/>
<feComposite in2="hardAlpha" operator="out"/>
<feColorMatrix type="matrix" values="0 0 0 0 0 0 0 0 0 0 0 0 0 0 0 0 0 0 0.25 0"/>
<feBlend mode="normal" in2="BackgroundImageFix" result="effect1_dropShadow_25_7"/>
<feBlend mode="normal" in="SourceGraphic" in2="effect1_dropShadow_25_7" result="shape"/>
</filter>
<filter id="filter11_f_25_7" x="245.3" y="27.2987" width="190.401" height="156.402" filterUnits="userSpaceOnUse" color-interpolation-filters="sRGB">
<feFlood flood-opacity="0" result="BackgroundImageFix"/>
<feBlend mode="normal" in="SourceGraphic" in2="BackgroundImageFix" result="shape"/>
<feGaussianBlur stdDeviation="3.35" result="effect1_foregroundBlur_25_7"/>
</filter>
<filter id="filter12_di_25_7" x="191.5" y="30" width="251" height="305.5" filterUnits="userSpaceOnUse" color-interpolation-filters="sRGB">
<feFlood flood-opacity="0" result="BackgroundImageFix"/>
<feColorMatrix in="SourceAlpha" type="matrix" values="0 0 0 0 0 0 0 0 0 0 0 0 0 0 0 0 0 0 127 0" result="hardAlpha"/>
<feOffset dy="4"/>
<feGaussianBlur stdDeviation="2"/>
<feComposite in2="hardAlpha" operator="out"/>
<feColorMatrix type="matrix" values="0 0 0 0 0.156863 0 0 0 0 0.32549 0 0 0 0 0.360784 0 0 0 1 0"/>
<feBlend mode="normal" in2="BackgroundImageFix" result="effect1_dropShadow_25_7"/>
<feBlend mode="normal" in="SourceGraphic" in2="effect1_dropShadow_25_7" result="shape"/>
<feColorMatrix in="SourceAlpha" type="matrix" values="0 0 0 0 0 0 0 0 0 0 0 0 0 0 0 0 0 0 127 0" result="hardAlpha"/>
<feOffset dx="4" dy="1"/>
<feGaussianBlur stdDeviation="2"/>
<feComposite in2="hardAlpha" operator="arithmetic" k2="-1" k3="1"/>
<feColorMatrix type="matrix" values="0 0 0 0 0.733333 0 0 0 0 0.933333 0 0 0 0 0.870588 0 0 0 1 0"/>
<feBlend mode="normal" in2="shape" result="effect2_innerShadow_25_7"/>
</filter>
<filter id="filter13_f_25_7" x="395.583" y="1.78438" width="54.2273" height="49.3353" filterUnits="userSpaceOnUse" color-interpolation-filters="sRGB">
<feFlood flood-opacity="0" result="BackgroundImageFix"/>
<feBlend mode="normal" in="SourceGraphic" in2="BackgroundImageFix" result="shape"/>
<feGaussianBlur stdDeviation="4.1" result="effect1_foregroundBlur_25_7"/>
</filter>
<filter id="filter14_f_25_7" x="426.359" y="319.937" width="41.3088" height="29.1642" filterUnits="userSpaceOnUse" color-interpolation-filters="sRGB">
<feFlood flood-opacity="0" result="BackgroundImageFix"/>
<feBlend mode="normal" in="SourceGraphic" in2="BackgroundImageFix" result="shape"/>
<feGaussianBlur stdDeviation="3.35" result="effect1_foregroundBlur_25_7"/>
</filter>
<linearGradient id="paint0_linear_25_7" x1="205.5" y1="280" x2="200" y2="310.5" gradientUnits="userSpaceOnUse">
<stop stop-color="#669492"/>
<stop offset="1" stop-color="#204C70"/>
</linearGradient>
<linearGradient id="paint1_linear_25_7" x1="200.702" y1="295.5" x2="211.202" y2="311" gradientUnits="userSpaceOnUse">
<stop stop-color="#95C6BF" stop-opacity="0"/>
<stop offset="0.49" stop-color="#3A586B"/>
</linearGradient>
</defs>
</svg>
