<svg width="429" height="370" viewBox="0 0 429 370" fill="none" xmlns="http://www.w3.org/2000/svg">
<g filter="url(#filter0_f_14_56)">
<ellipse cx="174.5" cy="344" rx="23.5" ry="3" fill="#11253C" fill-opacity="0.59"/>
</g>
<g filter="url(#filter1_f_14_56)">
<ellipse cx="286.5" cy="344" rx="23.5" ry="3" fill="#11253C" fill-opacity="0.59"/>
</g>
<g filter="url(#filter2_f_14_56)">
<ellipse cx="280.5" cy="337" rx="23.5" ry="3" fill="#11253C" fill-opacity="0.59"/>
</g>
<g filter="url(#filter3_f_14_56)">
<ellipse cx="168.5" cy="336" rx="23.5" ry="3" fill="#11253C" fill-opacity="0.59"/>
</g>
<g filter="url(#filter4_f_14_56)">
<ellipse cx="273.5" cy="338" rx="115.5" ry="9" fill="#11253C" fill-opacity="0.46"/>
</g>
<path d="M132 286L145 337H180C184.667 329.333 195.4 313.2 201 310C206.6 306.8 157.333 292.667 132 286Z" fill="url(#paint0_linear_14_56)"/>
<path d="M139 295L152 346H187C191.667 338.333 202.4 322.2 208 319C213.6 315.8 164.333 301.667 139 295Z" fill="url(#paint1_linear_14_56)"/>
<g filter="url(#filter5_if_14_56)">
<path d="M119.252 110.714L136.252 147.714C136.252 147.714 206.535 165.369 185.252 133.714C163.969 102.059 115.074 100.278 119.252 110.714Z" fill="url(#paint2_linear_14_56)"/>
</g>
<g filter="url(#filter6_ii_14_56)">
<path d="M377 198.5C377 210.374 367.374 220 355.5 220C343.626 220 334 210.374 334 198.5C334 186.626 343.626 177 355.5 177C367.374 177 377 186.626 377 198.5ZM343.686 198.5C343.686 205.025 348.975 210.314 355.5 210.314C362.025 210.314 367.314 205.025 367.314 198.5C367.314 191.975 362.025 186.686 355.5 186.686C348.975 186.686 343.686 191.975 343.686 198.5Z" fill="#824253"/>
</g>
<g filter="url(#filter7_iif_14_56)">
<path d="M374 196.5C374 208.374 364.374 218 352.5 218C340.626 218 331 208.374 331 196.5C331 184.626 340.626 175 352.5 175C364.374 175 374 184.626 374 196.5ZM340.686 196.5C340.686 203.025 345.975 208.314 352.5 208.314C359.025 208.314 364.314 203.025 364.314 196.5C364.314 189.975 359.025 184.686 352.5 184.686C345.975 184.686 340.686 189.975 340.686 196.5Z" fill="#D5969E"/>
</g>
<path d="M259 337L251 319.733L311 288L294.784 337H259Z" fill="#9B616D"/>
<path d="M264 344L259.5 325.5L315 291.5L300 344H264Z" fill="url(#paint3_linear_14_56)"/>
<ellipse cx="223" cy="221" rx="124" ry="108" fill="url(#paint4_radial_14_56)"/>
<g filter="url(#filter8_d_14_56)">
<ellipse cx="106" cy="233" rx="7" ry="28" fill="#D9D9D9"/>
</g>
<g filter="url(#filter9_i_14_56)">
<path d="M88.5 261C95.6316 238.19 94.3619 221.659 87 196H107.5C118 220 117 242 108.5 261H88.5Z" fill="url(#paint5_radial_14_56)"/>
</g>
<g filter="url(#filter10_d_14_56)">
<path d="M82 248C83.9057 254.228 85.5924 257.151 89 262C96.345 236.86 94.7676 222.32 87 196C83.7025 200.27 82.8576 202.391 82 206V248Z" fill="#F3D7D0"/>
</g>
<g filter="url(#filter11_df_14_56)">
<path d="M86.9358 217C85.4283 226.979 85.7285 232.561 87.9358 242.5C90.6994 238.034 91.4722 234.244 91.4358 225C90.3032 221.393 89.3737 219.255 86.9358 217Z" fill="#B1727A"/>
</g>
<g filter="url(#filter12_f_14_56)">
<path d="M119.5 210.5C209.632 209.67 252.658 196.785 313.5 147.5C272.715 115.37 243.513 109.608 181 119.5C117.858 148.638 107.724 169.107 119.5 210.5Z" fill="#FFF1E4"/>
</g>
<g filter="url(#filter13_diif_14_56)">
<path d="M147.254 118.612C144.254 125.612 168.77 155.797 171.254 185.112C175 193.5 199.591 170.16 201.254 153.112C203.683 128.205 150.254 111.611 147.254 118.612Z" fill="#C98A93"/>
</g>
<g filter="url(#filter14_f_14_56)">
<path d="M176 140.5L181 182.5L198.5 187L217 168.5L204 145L176 126.5V140.5Z" fill="#9C616D"/>
</g>
<g filter="url(#filter15_i_14_56)">
<ellipse cx="141.597" cy="170.568" rx="6.49979" ry="8.59363" transform="rotate(25.8542 141.597 170.568)" fill="#003970"/>
</g>
<g filter="url(#filter16_if_14_56)">
<path d="M270 128C240.5 124.326 218 121.857 189.5 127L186 121.387C213 116.978 219 116.244 254.5 118.448L266 121.387L270 128Z" fill="#211A2A"/>
</g>
<g filter="url(#filter17_f_14_56)">
<path d="M199.5 155C194.571 169.521 189.175 175.085 177.5 183C190.117 179.351 195.508 174.515 202.5 161.5C204.007 152.281 201.622 147.301 196 138.5L199.5 155Z" fill="#4F0C0C"/>
</g>
<g filter="url(#filter18_f_14_56)">
<path d="M116 209L100 261H114C122.5 247.5 119 223.5 116 209Z" fill="#B97282"/>
</g>
<g filter="url(#filter19_f_14_56)">
<path d="M257 329H305L299 304.5C280.5 310.5 255 317 257 329Z" fill="#B97282"/>
</g>
<g filter="url(#filter20_f_14_56)">
<path d="M280.5 315.5C210.696 344.077 152.305 311.641 145.221 307.438L144.5 307C144.5 307 144.744 307.155 145.221 307.438L158.5 315.5L175.5 326.5L187.5 346L197.5 329.5L224 332L259.5 326.5L280.5 315.5Z" fill="#B97282"/>
</g>
<g filter="url(#filter21_f_14_56)">
<path d="M251 323.4L303 318.5L312.5 294C269.5 308.4 280.5 314 251 323.4Z" fill="#985463"/>
</g>
<g filter="url(#filter22_f_14_56)">
<path d="M141 306C145.156 322.064 149.5 345 153.5 345C157.5 345 174 322 174 322L141 306Z" fill="#FCDDDB"/>
</g>
<g filter="url(#filter23_f_14_56)">
<path d="M342.5 204.5C344.806 191.84 346.102 187.919 358.5 186.5C351.181 182.562 342 186 340 190L342.5 204.5Z" fill="#9E6571"/>
</g>
<g filter="url(#filter24_f_14_56)">
<path d="M361.194 217.406C352.5 212 347.5 210.5 343 198.5C338.166 205.927 342.503 215.886 346.294 218.48L361.194 217.406Z" fill="#9E6571"/>
</g>
<g filter="url(#filter25_f_14_56)">
<path d="M118.462 265.832C109.421 269.61 111.118 259.286 110.017 260.31C121.35 242.479 112.198 201.24 104 194.5C116.991 190.474 127.503 262.053 118.462 265.832Z" fill="#9A5665"/>
</g>
<defs>
<filter id="filter0_f_14_56" x="147" y="337" width="55" height="14" filterUnits="userSpaceOnUse" color-interpolation-filters="sRGB">
<feFlood flood-opacity="0" result="BackgroundImageFix"/>
<feBlend mode="normal" in="SourceGraphic" in2="BackgroundImageFix" result="shape"/>
<feGaussianBlur stdDeviation="2" result="effect1_foregroundBlur_14_56"/>
</filter>
<filter id="filter1_f_14_56" x="259" y="337" width="55" height="14" filterUnits="userSpaceOnUse" color-interpolation-filters="sRGB">
<feFlood flood-opacity="0" result="BackgroundImageFix"/>
<feBlend mode="normal" in="SourceGraphic" in2="BackgroundImageFix" result="shape"/>
<feGaussianBlur stdDeviation="2" result="effect1_foregroundBlur_14_56"/>
</filter>
<filter id="filter2_f_14_56" x="253" y="330" width="55" height="14" filterUnits="userSpaceOnUse" color-interpolation-filters="sRGB">
<feFlood flood-opacity="0" result="BackgroundImageFix"/>
<feBlend mode="normal" in="SourceGraphic" in2="BackgroundImageFix" result="shape"/>
<feGaussianBlur stdDeviation="2" result="effect1_foregroundBlur_14_56"/>
</filter>
<filter id="filter3_f_14_56" x="141" y="329" width="55" height="14" filterUnits="userSpaceOnUse" color-interpolation-filters="sRGB">
<feFlood flood-opacity="0" result="BackgroundImageFix"/>
<feBlend mode="normal" in="SourceGraphic" in2="BackgroundImageFix" result="shape"/>
<feGaussianBlur stdDeviation="2" result="effect1_foregroundBlur_14_56"/>
</filter>
<filter id="filter4_f_14_56" x="148.6" y="319.6" width="249.8" height="36.8" filterUnits="userSpaceOnUse" color-interpolation-filters="sRGB">
<feFlood flood-opacity="0" result="BackgroundImageFix"/>
<feBlend mode="normal" in="SourceGraphic" in2="BackgroundImageFix" result="shape"/>
<feGaussianBlur stdDeviation="4.7" result="effect1_foregroundBlur_14_56"/>
</filter>
<filter id="filter5_if_14_56" x="117.9" y="103.9" width="74.3659" height="52.7231" filterUnits="userSpaceOnUse" color-interpolation-filters="sRGB">
<feFlood flood-opacity="0" result="BackgroundImageFix"/>
<feBlend mode="normal" in="SourceGraphic" in2="BackgroundImageFix" result="shape"/>
<feColorMatrix in="SourceAlpha" type="matrix" values="0 0 0 0 0 0 0 0 0 0 0 0 0 0 0 0 0 0 127 0" result="hardAlpha"/>
<feOffset dx="3" dy="4"/>
<feGaussianBlur stdDeviation="2"/>
<feComposite in2="hardAlpha" operator="arithmetic" k2="-1" k3="1"/>
<feColorMatrix type="matrix" values="0 0 0 0 1 0 0 0 0 1 0 0 0 0 1 0 0 0 0.47 0"/>
<feBlend mode="normal" in2="shape" result="effect1_innerShadow_14_56"/>
<feGaussianBlur stdDeviation="0.55" result="effect2_foregroundBlur_14_56"/>
</filter>
<filter id="filter6_ii_14_56" x="334" y="177" width="47" height="47" filterUnits="userSpaceOnUse" color-interpolation-filters="sRGB">
<feFlood flood-opacity="0" result="BackgroundImageFix"/>
<feBlend mode="normal" in="SourceGraphic" in2="BackgroundImageFix" result="shape"/>
<feColorMatrix in="SourceAlpha" type="matrix" values="0 0 0 0 0 0 0 0 0 0 0 0 0 0 0 0 0 0 127 0" result="hardAlpha"/>
<feOffset dx="7" dy="8"/>
<feGaussianBlur stdDeviation="2"/>
<feComposite in2="hardAlpha" operator="arithmetic" k2="-1" k3="1"/>
<feColorMatrix type="matrix" values="0 0 0 0 1 0 0 0 0 1 0 0 0 0 1 0 0 0 0.25 0"/>
<feBlend mode="normal" in2="shape" result="effect1_innerShadow_14_56"/>
<feColorMatrix in="SourceAlpha" type="matrix" values="0 0 0 0 0 0 0 0 0 0 0 0 0 0 0 0 0 0 127 0" result="hardAlpha"/>
<feOffset dx="2" dy="2"/>
<feGaussianBlur stdDeviation="1.7"/>
<feComposite in2="hardAlpha" operator="arithmetic" k2="-1" k3="1"/>
<feColorMatrix type="matrix" values="0 0 0 0 0.954167 0 0 0 0 0.83357 0 0 0 0 0.747431 0 0 0 0.25 0"/>
<feBlend mode="normal" in2="effect1_innerShadow_14_56" result="effect2_innerShadow_14_56"/>
</filter>
<filter id="filter7_iif_14_56" x="327" y="171" width="51" height="51" filterUnits="userSpaceOnUse" color-interpolation-filters="sRGB">
<feFlood flood-opacity="0" result="BackgroundImageFix"/>
<feBlend mode="normal" in="SourceGraphic" in2="BackgroundImageFix" result="shape"/>
<feColorMatrix in="SourceAlpha" type="matrix" values="0 0 0 0 0 0 0 0 0 0 0 0 0 0 0 0 0 0 127 0" result="hardAlpha"/>
<feOffset dx="7" dy="8"/>
<feGaussianBlur stdDeviation="2"/>
<feComposite in2="hardAlpha" operator="arithmetic" k2="-1" k3="1"/>
<feColorMatrix type="matrix" values="0 0 0 0 1 0 0 0 0 1 0 0 0 0 1 0 0 0 0.25 0"/>
<feBlend mode="normal" in2="shape" result="effect1_innerShadow_14_56"/>
<feColorMatrix in="SourceAlpha" type="matrix" values="0 0 0 0 0 0 0 0 0 0 0 0 0 0 0 0 0 0 127 0" result="hardAlpha"/>
<feOffset dx="2" dy="2"/>
<feGaussianBlur stdDeviation="1.7"/>
<feComposite in2="hardAlpha" operator="arithmetic" k2="-1" k3="1"/>
<feColorMatrix type="matrix" values="0 0 0 0 0.954167 0 0 0 0 0.83357 0 0 0 0 0.747431 0 0 0 0.25 0"/>
<feBlend mode="normal" in2="effect1_innerShadow_14_56" result="effect2_innerShadow_14_56"/>
<feGaussianBlur stdDeviation="2" result="effect3_foregroundBlur_14_56"/>
</filter>
<filter id="filter8_d_14_56" x="92.7" y="198.7" width="38.6" height="80.6" filterUnits="userSpaceOnUse" color-interpolation-filters="sRGB">
<feFlood flood-opacity="0" result="BackgroundImageFix"/>
<feColorMatrix in="SourceAlpha" type="matrix" values="0 0 0 0 0 0 0 0 0 0 0 0 0 0 0 0 0 0 127 0" result="hardAlpha"/>
<feOffset dx="6" dy="6"/>
<feGaussianBlur stdDeviation="6.15"/>
<feComposite in2="hardAlpha" operator="out"/>
<feColorMatrix type="matrix" values="0 0 0 0 0.641667 0 0 0 0 0.0320833 0 0 0 0 0.0320833 0 0 0 0.49 0"/>
<feBlend mode="normal" in2="BackgroundImageFix" result="effect1_dropShadow_14_56"/>
<feBlend mode="normal" in="SourceGraphic" in2="effect1_dropShadow_14_56" result="shape"/>
</filter>
<filter id="filter9_i_14_56" x="86" y="196" width="29.125" height="71" filterUnits="userSpaceOnUse" color-interpolation-filters="sRGB">
<feFlood flood-opacity="0" result="BackgroundImageFix"/>
<feBlend mode="normal" in="SourceGraphic" in2="BackgroundImageFix" result="shape"/>
<feColorMatrix in="SourceAlpha" type="matrix" values="0 0 0 0 0 0 0 0 0 0 0 0 0 0 0 0 0 0 127 0" result="hardAlpha"/>
<feOffset dx="-1" dy="6"/>
<feGaussianBlur stdDeviation="7.75"/>
<feComposite in2="hardAlpha" operator="arithmetic" k2="-1" k3="1"/>
<feColorMatrix type="matrix" values="0 0 0 0 1 0 0 0 0 1 0 0 0 0 1 0 0 0 0.52 0"/>
<feBlend mode="normal" in2="shape" result="effect1_innerShadow_14_56"/>
</filter>
<filter id="filter10_d_14_56" x="78" y="196" width="19.7461" height="74" filterUnits="userSpaceOnUse" color-interpolation-filters="sRGB">
<feFlood flood-opacity="0" result="BackgroundImageFix"/>
<feColorMatrix in="SourceAlpha" type="matrix" values="0 0 0 0 0 0 0 0 0 0 0 0 0 0 0 0 0 0 127 0" result="hardAlpha"/>
<feOffset dy="4"/>
<feGaussianBlur stdDeviation="2"/>
<feComposite in2="hardAlpha" operator="out"/>
<feColorMatrix type="matrix" values="0 0 0 0 1 0 0 0 0 1 0 0 0 0 1 0 0 0 0.25 0"/>
<feBlend mode="normal" in2="BackgroundImageFix" result="effect1_dropShadow_14_56"/>
<feBlend mode="normal" in="SourceGraphic" in2="effect1_dropShadow_14_56" result="shape"/>
</filter>
<filter id="filter11_df_14_56" x="82" y="216" width="13.437" height="34.5" filterUnits="userSpaceOnUse" color-interpolation-filters="sRGB">
<feFlood flood-opacity="0" result="BackgroundImageFix"/>
<feColorMatrix in="SourceAlpha" type="matrix" values="0 0 0 0 0 0 0 0 0 0 0 0 0 0 0 0 0 0 127 0" result="hardAlpha"/>
<feOffset dy="4"/>
<feGaussianBlur stdDeviation="2"/>
<feComposite in2="hardAlpha" operator="out"/>
<feColorMatrix type="matrix" values="0 0 0 0 0 0 0 0 0 0 0 0 0 0 0 0 0 0 0.25 0"/>
<feBlend mode="normal" in2="BackgroundImageFix" result="effect1_dropShadow_14_56"/>
<feBlend mode="normal" in="SourceGraphic" in2="effect1_dropShadow_14_56" result="shape"/>
<feGaussianBlur stdDeviation="0.5" result="effect2_foregroundBlur_14_56"/>
</filter>
<filter id="filter12_f_14_56" x="0.630226" y="0.504539" width="427.47" height="324.595" filterUnits="userSpaceOnUse" color-interpolation-filters="sRGB">
<feFlood flood-opacity="0" result="BackgroundImageFix"/>
<feBlend mode="normal" in="SourceGraphic" in2="BackgroundImageFix" result="shape"/>
<feGaussianBlur stdDeviation="57.3" result="effect1_foregroundBlur_14_56"/>
</filter>
<filter id="filter13_diif_14_56" x="143" y="113" width="68.3345" height="83.8752" filterUnits="userSpaceOnUse" color-interpolation-filters="sRGB">
<feFlood flood-opacity="0" result="BackgroundImageFix"/>
<feColorMatrix in="SourceAlpha" type="matrix" values="0 0 0 0 0 0 0 0 0 0 0 0 0 0 0 0 0 0 127 0" result="hardAlpha"/>
<feOffset dx="3" dy="3"/>
<feGaussianBlur stdDeviation="3.5"/>
<feComposite in2="hardAlpha" operator="out"/>
<feColorMatrix type="matrix" values="0 0 0 0 0.745098 0 0 0 0 0.447059 0 0 0 0 0.47451 0 0 0 1 0"/>
<feBlend mode="normal" in2="BackgroundImageFix" result="effect1_dropShadow_14_56"/>
<feBlend mode="normal" in="SourceGraphic" in2="effect1_dropShadow_14_56" result="shape"/>
<feColorMatrix in="SourceAlpha" type="matrix" values="0 0 0 0 0 0 0 0 0 0 0 0 0 0 0 0 0 0 127 0" result="hardAlpha"/>
<feOffset dx="6"/>
<feGaussianBlur stdDeviation="2"/>
<feComposite in2="hardAlpha" operator="arithmetic" k2="-1" k3="1"/>
<feColorMatrix type="matrix" values="0 0 0 0 0.992157 0 0 0 0 0.894118 0 0 0 0 0.866667 0 0 0 1 0"/>
<feBlend mode="normal" in2="shape" result="effect2_innerShadow_14_56"/>
<feColorMatrix in="SourceAlpha" type="matrix" values="0 0 0 0 0 0 0 0 0 0 0 0 0 0 0 0 0 0 127 0" result="hardAlpha"/>
<feOffset dx="-4" dy="-4"/>
<feGaussianBlur stdDeviation="7"/>
<feComposite in2="hardAlpha" operator="arithmetic" k2="-1" k3="1"/>
<feColorMatrix type="matrix" values="0 0 0 0 0.541667 0 0 0 0 0.0293403 0 0 0 0 0.0293403 0 0 0 0.25 0"/>
<feBlend mode="normal" in2="effect2_innerShadow_14_56" result="effect3_innerShadow_14_56"/>
<feGaussianBlur stdDeviation="0.5" result="effect4_foregroundBlur_14_56"/>
</filter>
<filter id="filter14_f_14_56" x="162" y="112.5" width="69" height="88.5" filterUnits="userSpaceOnUse" color-interpolation-filters="sRGB">
<feFlood flood-opacity="0" result="BackgroundImageFix"/>
<feBlend mode="normal" in="SourceGraphic" in2="BackgroundImageFix" result="shape"/>
<feGaussianBlur stdDeviation="7" result="effect1_foregroundBlur_14_56"/>
</filter>
<filter id="filter15_i_14_56" x="134.649" y="162.329" width="15.8953" height="18.4775" filterUnits="userSpaceOnUse" color-interpolation-filters="sRGB">
<feFlood flood-opacity="0" result="BackgroundImageFix"/>
<feBlend mode="normal" in="SourceGraphic" in2="BackgroundImageFix" result="shape"/>
<feColorMatrix in="SourceAlpha" type="matrix" values="0 0 0 0 0 0 0 0 0 0 0 0 0 0 0 0 0 0 127 0" result="hardAlpha"/>
<feOffset dx="2" dy="2"/>
<feGaussianBlur stdDeviation="2"/>
<feComposite in2="hardAlpha" operator="arithmetic" k2="-1" k3="1"/>
<feColorMatrix type="matrix" values="0 0 0 0 0 0 0 0 0 0 0 0 0 0 0 0 0 0 1 0"/>
<feBlend mode="normal" in2="shape" result="effect1_innerShadow_14_56"/>
</filter>
<filter id="filter16_if_14_56" x="185.2" y="116.444" width="85.6" height="13.5559" filterUnits="userSpaceOnUse" color-interpolation-filters="sRGB">
<feFlood flood-opacity="0" result="BackgroundImageFix"/>
<feBlend mode="normal" in="SourceGraphic" in2="BackgroundImageFix" result="shape"/>
<feColorMatrix in="SourceAlpha" type="matrix" values="0 0 0 0 0 0 0 0 0 0 0 0 0 0 0 0 0 0 127 0" result="hardAlpha"/>
<feOffset dy="2"/>
<feGaussianBlur stdDeviation="1"/>
<feComposite in2="hardAlpha" operator="arithmetic" k2="-1" k3="1"/>
<feColorMatrix type="matrix" values="0 0 0 0 0.882353 0 0 0 0 0.717647 0 0 0 0 0.721569 0 0 0 1 0"/>
<feBlend mode="normal" in2="shape" result="effect1_innerShadow_14_56"/>
<feGaussianBlur stdDeviation="0.4" result="effect2_foregroundBlur_14_56"/>
</filter>
<filter id="filter17_f_14_56" x="159.3" y="120.3" width="61.8424" height="80.9" filterUnits="userSpaceOnUse" color-interpolation-filters="sRGB">
<feFlood flood-opacity="0" result="BackgroundImageFix"/>
<feBlend mode="normal" in="SourceGraphic" in2="BackgroundImageFix" result="shape"/>
<feGaussianBlur stdDeviation="9.1" result="effect1_foregroundBlur_14_56"/>
</filter>
<filter id="filter18_f_14_56" x="91.1" y="200.1" width="37.1303" height="69.8" filterUnits="userSpaceOnUse" color-interpolation-filters="sRGB">
<feFlood flood-opacity="0" result="BackgroundImageFix"/>
<feBlend mode="normal" in="SourceGraphic" in2="BackgroundImageFix" result="shape"/>
<feGaussianBlur stdDeviation="4.45" result="effect1_foregroundBlur_14_56"/>
</filter>
<filter id="filter19_f_14_56" x="247.989" y="295.6" width="65.9108" height="42.3" filterUnits="userSpaceOnUse" color-interpolation-filters="sRGB">
<feFlood flood-opacity="0" result="BackgroundImageFix"/>
<feBlend mode="normal" in="SourceGraphic" in2="BackgroundImageFix" result="shape"/>
<feGaussianBlur stdDeviation="4.45" result="effect1_foregroundBlur_14_56"/>
</filter>
<filter id="filter20_f_14_56" x="135.6" y="298.1" width="153.8" height="56.8" filterUnits="userSpaceOnUse" color-interpolation-filters="sRGB">
<feFlood flood-opacity="0" result="BackgroundImageFix"/>
<feBlend mode="normal" in="SourceGraphic" in2="BackgroundImageFix" result="shape"/>
<feGaussianBlur stdDeviation="4.45" result="effect1_foregroundBlur_14_56"/>
</filter>
<filter id="filter21_f_14_56" x="242.1" y="285.1" width="79.3" height="47.2" filterUnits="userSpaceOnUse" color-interpolation-filters="sRGB">
<feFlood flood-opacity="0" result="BackgroundImageFix"/>
<feBlend mode="normal" in="SourceGraphic" in2="BackgroundImageFix" result="shape"/>
<feGaussianBlur stdDeviation="4.45" result="effect1_foregroundBlur_14_56"/>
</filter>
<filter id="filter22_f_14_56" x="116.8" y="281.8" width="81.4" height="87.4" filterUnits="userSpaceOnUse" color-interpolation-filters="sRGB">
<feFlood flood-opacity="0" result="BackgroundImageFix"/>
<feBlend mode="normal" in="SourceGraphic" in2="BackgroundImageFix" result="shape"/>
<feGaussianBlur stdDeviation="12.1" result="effect1_foregroundBlur_14_56"/>
</filter>
<filter id="filter23_f_14_56" x="336" y="180.761" width="26.5" height="27.7386" filterUnits="userSpaceOnUse" color-interpolation-filters="sRGB">
<feFlood flood-opacity="0" result="BackgroundImageFix"/>
<feBlend mode="normal" in="SourceGraphic" in2="BackgroundImageFix" result="shape"/>
<feGaussianBlur stdDeviation="2" result="effect1_foregroundBlur_14_56"/>
</filter>
<filter id="filter24_f_14_56" x="336.858" y="194.5" width="28.3362" height="27.9801" filterUnits="userSpaceOnUse" color-interpolation-filters="sRGB">
<feFlood flood-opacity="0" result="BackgroundImageFix"/>
<feBlend mode="normal" in="SourceGraphic" in2="BackgroundImageFix" result="shape"/>
<feGaussianBlur stdDeviation="2" result="effect1_foregroundBlur_14_56"/>
</filter>
<filter id="filter25_f_14_56" x="85.4" y="175.736" width="55.0486" height="109.53" filterUnits="userSpaceOnUse" color-interpolation-filters="sRGB">
<feFlood flood-opacity="0" result="BackgroundImageFix"/>
<feBlend mode="normal" in="SourceGraphic" in2="BackgroundImageFix" result="shape"/>
<feGaussianBlur stdDeviation="9.3" result="effect1_foregroundBlur_14_56"/>
</filter>
<linearGradient id="paint0_linear_14_56" x1="142" y1="318" x2="196" y2="325" gradientUnits="userSpaceOnUse">
<stop stop-color="#ECAEB1"/>
<stop offset="1" stop-color="#AA6577"/>
</linearGradient>
<linearGradient id="paint1_linear_14_56" x1="149" y1="327" x2="203" y2="334" gradientUnits="userSpaceOnUse">
<stop stop-color="#ECAEB1"/>
<stop offset="1" stop-color="#B36C7E"/>
</linearGradient>
<linearGradient id="paint2_linear_14_56" x1="118.752" y1="108.214" x2="213.5" y2="171.5" gradientUnits="userSpaceOnUse">
<stop stop-color="#F8E1DC"/>
<stop offset="1" stop-color="#9E5C68"/>
</linearGradient>
<linearGradient id="paint3_linear_14_56" x1="262" y1="332" x2="304" y2="318" gradientUnits="userSpaceOnUse">
<stop stop-color="#ECAEB1"/>
<stop offset="1" stop-color="#B0697B"/>
</linearGradient>
<radialGradient id="paint4_radial_14_56" cx="0" cy="0" r="1" gradientUnits="userSpaceOnUse" gradientTransform="translate(115 169.219) rotate(30.0968) scale(234.055 263.257)">
<stop stop-color="#FCF9F9"/>
<stop offset="0.49" stop-color="#D09199"/>
<stop offset="1" stop-color="#9D636F"/>
</radialGradient>
<radialGradient id="paint5_radial_14_56" cx="0" cy="0" r="1" gradientUnits="userSpaceOnUse" gradientTransform="translate(95.5 201.5) rotate(72.4076) scale(43.0116 112.09)">
<stop stop-color="#FCC9C6"/>
<stop offset="1" stop-color="#B06977"/>
</radialGradient>
</defs>
</svg>
