<svg width="408" height="345" viewBox="0 0 408 345" fill="none" xmlns="http://www.w3.org/2000/svg">
<g filter="url(#filter0_f_21_2)">
<ellipse cx="168.291" cy="319.185" rx="21.0031" ry="2.68125" fill="#11253C" fill-opacity="0.59"/>
</g>
<g filter="url(#filter1_f_21_2)">
<ellipse cx="268.391" cy="319.185" rx="21.0031" ry="2.68125" fill="#11253C" fill-opacity="0.59"/>
</g>
<g filter="url(#filter2_f_21_2)">
<ellipse cx="271.028" cy="312.928" rx="21.0031" ry="2.68125" fill="#11253C" fill-opacity="0.59"/>
</g>
<g filter="url(#filter3_f_21_2)">
<ellipse cx="173.003" cy="314.41" rx="21.0031" ry="2.68125" fill="#11253C" fill-opacity="0.59"/>
</g>
<g filter="url(#filter4_f_21_2)">
<ellipse cx="256.772" cy="313.822" rx="103.228" ry="8.04375" fill="#11253C" fill-opacity="0.46"/>
</g>
<path d="M144 268.728L155.619 314.31H186.9C191.071 307.457 200.664 293.038 205.669 290.178C210.674 287.318 166.642 274.687 144 268.728Z" fill="url(#paint0_linear_21_2)"/>
<g filter="url(#filter5_f_21_2)">
<path d="M277 130.295C272 136.795 265.5 135.228 265.5 150.728C256.157 143.426 257.112 131.228 257.112 131.228C262.5 125.228 271.5 118.211 280 115.728C288.5 113.245 301.391 115.08 304.112 115.728C306.996 118.21 307.571 119.481 304.112 121.228C289.399 124.909 282 123.795 277 130.295Z" fill="#D29EA2"/>
</g>
<g filter="url(#filter6_d_21_2)">
<path d="M141 275.228L147.733 319.228C147.733 319.228 166.387 320.835 179.196 319.228C183.366 312.376 193.226 299.701 198.231 296.841C203.236 293.981 163.642 281.187 141 275.228Z" fill="url(#paint1_linear_21_2)"/>
</g>
<g filter="url(#filter7_ii_21_2)">
<path d="M115.113 181.1C115.113 191.713 106.509 200.316 95.8969 200.316C85.2844 200.316 76.6813 191.713 76.6813 181.1C76.6813 170.488 85.2844 161.885 95.8969 161.885C106.509 161.885 115.113 170.488 115.113 181.1ZM85.338 181.1C85.338 186.932 90.0654 191.659 95.8969 191.659C101.728 191.659 106.456 186.932 106.456 181.1C106.456 175.269 101.728 170.541 95.8969 170.541C90.0654 170.541 85.338 175.269 85.338 181.1Z" fill="#824253"/>
</g>
<g filter="url(#filter8_iif_21_2)">
<path d="M112.431 179.313C112.431 189.925 103.828 198.528 93.2156 198.528C82.6031 198.528 74 189.925 74 179.313C74 168.7 82.6031 160.097 93.2156 160.097C103.828 160.097 112.431 168.7 112.431 179.313ZM82.6567 179.313C82.6567 185.144 87.3841 189.872 93.2156 189.872C99.0472 189.872 103.775 185.144 103.775 179.313C103.775 173.481 99.0472 168.754 93.2156 168.754C87.3841 168.754 82.6567 173.481 82.6567 179.313Z" fill="#D5969E"/>
</g>
<g filter="url(#filter9_f_21_2)">
<path d="M84.2781 186.463C86.3394 175.148 87.4971 171.643 98.5781 170.375C92.0369 166.856 83.8313 169.928 82.0438 173.503L84.2781 186.463Z" fill="#9E6571"/>
</g>
<g filter="url(#filter10_f_21_2)">
<path d="M100.986 197.998C93.2156 193.166 88.7469 191.825 84.725 181.1C80.4045 187.738 84.281 196.639 87.6694 198.957L100.986 197.998Z" fill="#9E6571"/>
</g>
<path d="M251.15 313.522L244 298.09L297.625 269.728L283.132 313.522H251.15Z" fill="#9B616D"/>
<g filter="url(#filter11_i_21_2)">
<path d="M304.5 119.228C304.5 119.228 287.687 135.309 294.498 150.728L227 144.631L272.82 114.97C282.957 110.844 290.347 107.014 301 108.228C308.5 112.228 304.5 119.228 304.5 119.228Z" fill="#B65B6D"/>
</g>
<path d="M248.281 319.185L244.259 302.65L293.863 272.263L280.456 319.185H248.281Z" fill="url(#paint2_linear_21_2)"/>
<g filter="url(#filter12_f_21_2)">
<path d="M294 150.228C296.786 157.011 289.5 157.728 271.5 143.228C253.5 128.728 308.5 106.228 304 118.728C299.5 131.228 295.5 138.728 294 150.228Z" fill="#894552"/>
</g>
<ellipse cx="211.637" cy="209.253" rx="110.825" ry="96.525" fill="url(#paint3_radial_21_2)"/>
<g filter="url(#filter13_f_21_2)">
<path d="M119.135 199.869C199.689 199.127 238.144 187.612 292.522 143.563C256.07 114.847 229.971 109.697 174.1 118.538C117.666 144.58 108.61 162.874 119.135 199.869Z" fill="#FFF1E4"/>
</g>
<g filter="url(#filter14_i_21_2)">
<ellipse cx="288.382" cy="169.636" rx="5.80919" ry="7.68055" transform="rotate(-2.42311 288.382 169.636)" fill="#003970"/>
</g>
<g filter="url(#filter15_if_21_2)">
<path d="M253.644 126.135C227.278 122.851 207.169 120.644 181.697 125.241L178.569 120.224C202.7 116.284 208.062 115.627 239.791 117.597L250.069 120.224L253.644 126.135Z" fill="#211A2A"/>
</g>
<g filter="url(#filter16_f_21_2)">
<path d="M242.025 305.778H284.925L279.562 283.881C263.028 289.244 240.238 295.053 242.025 305.778Z" fill="#B97282"/>
</g>
<g filter="url(#filter17_f_21_2)">
<path d="M140 279.228C140 279.228 196.444 317.972 263.028 290.713L244.259 303.544L212.531 308.46L188.847 306.225L179.909 320.972L169.184 303.544L153.991 293.713L140 279.228Z" fill="#B97282"/>
</g>
<g filter="url(#filter18_f_21_2)">
<path d="M236.662 300.773L283.137 296.394L291.628 274.497C253.197 287.367 263.028 292.372 236.662 300.773Z" fill="#985463"/>
</g>
<g filter="url(#filter19_f_21_2)">
<path d="M138.35 285.222C142.065 299.579 145.947 320.078 149.522 320.078C153.097 320.078 167.844 299.522 167.844 299.522L138.35 285.222Z" fill="#FCDDDB"/>
</g>
<g filter="url(#filter20_f_21_2)">
<path d="M308.06 213.728C309.21 224.087 311.126 229.659 316.56 239.228H331.56C334.548 236.02 335.785 233.438 337.059 227.228C337.718 219.644 339.043 212.419 338.56 198.728C337.267 190.365 336.198 186.565 333.56 181.728L318.06 182.728C312.069 196.725 307.416 205.747 308.06 213.728Z" fill="url(#paint4_linear_21_2)"/>
</g>
<g filter="url(#filter21_f_21_2)">
<path d="M326 210.228C326.205 224.924 327.337 231.407 331.5 239.228C333.761 238.336 335.141 235.521 338 222.228C338.267 214.211 338.456 209.91 338 198.228C336.461 190.135 335.603 185.311 334 181.728C329.404 194.94 326.131 203.333 326 210.228Z" fill="#9D6E82"/>
</g>
<g filter="url(#filter22_i_21_2)">
<path d="M329 204.379C329.09 211.799 328.565 216.72 331.5 220.379C332.403 219.058 332.844 218.084 333.5 215.879C334.061 208.517 334.468 204.076 333.5 201.879C331.263 201.432 330.251 201.9 329 204.379Z" fill="#73356A"/>
</g>
<g filter="url(#filter23_f_21_2)">
<path d="M277.5 163.229C280.285 170.012 256.233 185.301 246.928 179.645C237.623 173.989 246.216 152.986 256.5 136.729C272 141.729 276.782 149.918 277.5 163.229Z" fill="#894552"/>
</g>
<g filter="url(#filter24_ii_21_2)">
<path d="M271.5 126.729C251.333 145.229 254.571 175.153 251.333 179.492C248.096 183.83 228.569 163.267 229.333 162.492C227.253 156.955 227.25 153.905 227.833 148.492C231 142.229 232 140.729 236.5 135.729C246.167 125.967 249 125.229 261.5 122.229C268 120.229 273 124.729 271.5 126.729Z" fill="url(#paint5_radial_21_2)"/>
</g>
<g filter="url(#filter25_f_21_2)">
<path d="M223 164.729L249 186.229V175.229L237 164.729L230.5 153.229H223V164.729Z" fill="#D9A7AB"/>
</g>
<g filter="url(#filter26_f_21_2)">
<path d="M245 152.229C245 152.229 242.5 160.229 242.5 175.729C233.157 168.427 231.239 164.514 227.5 156.229C226.772 147.158 229.538 145.771 234 138.729C241.925 133.08 246 130.729 262.5 124.229L261 130.729L245 152.229Z" fill="#FFECE6" fill-opacity="0.8"/>
</g>
<g filter="url(#filter27_f_21_2)">
<path d="M193.5 303.728L186 310.728L177.5 299.228L193.5 303.728Z" fill="#9D4F5C"/>
</g>
<defs>
<filter id="filter0_f_21_2" x="143.287" y="312.503" width="50.0062" height="13.3625" filterUnits="userSpaceOnUse" color-interpolation-filters="sRGB">
<feFlood flood-opacity="0" result="BackgroundImageFix"/>
<feBlend mode="normal" in="SourceGraphic" in2="BackgroundImageFix" result="shape"/>
<feGaussianBlur stdDeviation="2" result="effect1_foregroundBlur_21_2"/>
</filter>
<filter id="filter1_f_21_2" x="243.387" y="312.503" width="50.0062" height="13.3625" filterUnits="userSpaceOnUse" color-interpolation-filters="sRGB">
<feFlood flood-opacity="0" result="BackgroundImageFix"/>
<feBlend mode="normal" in="SourceGraphic" in2="BackgroundImageFix" result="shape"/>
<feGaussianBlur stdDeviation="2" result="effect1_foregroundBlur_21_2"/>
</filter>
<filter id="filter2_f_21_2" x="246.025" y="306.247" width="50.0062" height="13.3625" filterUnits="userSpaceOnUse" color-interpolation-filters="sRGB">
<feFlood flood-opacity="0" result="BackgroundImageFix"/>
<feBlend mode="normal" in="SourceGraphic" in2="BackgroundImageFix" result="shape"/>
<feGaussianBlur stdDeviation="2" result="effect1_foregroundBlur_21_2"/>
</filter>
<filter id="filter3_f_21_2" x="148" y="307.728" width="50.0062" height="13.3625" filterUnits="userSpaceOnUse" color-interpolation-filters="sRGB">
<feFlood flood-opacity="0" result="BackgroundImageFix"/>
<feBlend mode="normal" in="SourceGraphic" in2="BackgroundImageFix" result="shape"/>
<feGaussianBlur stdDeviation="2" result="effect1_foregroundBlur_21_2"/>
</filter>
<filter id="filter4_f_21_2" x="144.144" y="296.378" width="225.256" height="34.8875" filterUnits="userSpaceOnUse" color-interpolation-filters="sRGB">
<feFlood flood-opacity="0" result="BackgroundImageFix"/>
<feBlend mode="normal" in="SourceGraphic" in2="BackgroundImageFix" result="shape"/>
<feGaussianBlur stdDeviation="4.7" result="effect1_foregroundBlur_21_2"/>
</filter>
<filter id="filter5_f_21_2" x="246.285" y="103.666" width="71.0104" height="57.8624" filterUnits="userSpaceOnUse" color-interpolation-filters="sRGB">
<feFlood flood-opacity="0" result="BackgroundImageFix"/>
<feBlend mode="normal" in="SourceGraphic" in2="BackgroundImageFix" result="shape"/>
<feGaussianBlur stdDeviation="5.4" result="effect1_foregroundBlur_21_2"/>
</filter>
<filter id="filter6_d_21_2" x="137" y="275.228" width="65.6641" height="52.7139" filterUnits="userSpaceOnUse" color-interpolation-filters="sRGB">
<feFlood flood-opacity="0" result="BackgroundImageFix"/>
<feColorMatrix in="SourceAlpha" type="matrix" values="0 0 0 0 0 0 0 0 0 0 0 0 0 0 0 0 0 0 127 0" result="hardAlpha"/>
<feOffset dy="4"/>
<feGaussianBlur stdDeviation="2"/>
<feComposite in2="hardAlpha" operator="out"/>
<feColorMatrix type="matrix" values="0 0 0 0 0 0 0 0 0 0 0 0 0 0 0 0 0 0 0.25 0"/>
<feBlend mode="normal" in2="BackgroundImageFix" result="effect1_dropShadow_21_2"/>
<feBlend mode="normal" in="SourceGraphic" in2="effect1_dropShadow_21_2" result="shape"/>
</filter>
<filter id="filter7_ii_21_2" x="76.6813" y="161.885" width="42.4313" height="42.4313" filterUnits="userSpaceOnUse" color-interpolation-filters="sRGB">
<feFlood flood-opacity="0" result="BackgroundImageFix"/>
<feBlend mode="normal" in="SourceGraphic" in2="BackgroundImageFix" result="shape"/>
<feColorMatrix in="SourceAlpha" type="matrix" values="0 0 0 0 0 0 0 0 0 0 0 0 0 0 0 0 0 0 127 0" result="hardAlpha"/>
<feOffset dx="7" dy="8"/>
<feGaussianBlur stdDeviation="2"/>
<feComposite in2="hardAlpha" operator="arithmetic" k2="-1" k3="1"/>
<feColorMatrix type="matrix" values="0 0 0 0 1 0 0 0 0 1 0 0 0 0 1 0 0 0 0.25 0"/>
<feBlend mode="normal" in2="shape" result="effect1_innerShadow_21_2"/>
<feColorMatrix in="SourceAlpha" type="matrix" values="0 0 0 0 0 0 0 0 0 0 0 0 0 0 0 0 0 0 127 0" result="hardAlpha"/>
<feOffset dx="2" dy="2"/>
<feGaussianBlur stdDeviation="1.7"/>
<feComposite in2="hardAlpha" operator="arithmetic" k2="-1" k3="1"/>
<feColorMatrix type="matrix" values="0 0 0 0 0.954167 0 0 0 0 0.83357 0 0 0 0 0.747431 0 0 0 0.25 0"/>
<feBlend mode="normal" in2="effect1_innerShadow_21_2" result="effect2_innerShadow_21_2"/>
</filter>
<filter id="filter8_iif_21_2" x="70" y="156.097" width="46.4313" height="46.4313" filterUnits="userSpaceOnUse" color-interpolation-filters="sRGB">
<feFlood flood-opacity="0" result="BackgroundImageFix"/>
<feBlend mode="normal" in="SourceGraphic" in2="BackgroundImageFix" result="shape"/>
<feColorMatrix in="SourceAlpha" type="matrix" values="0 0 0 0 0 0 0 0 0 0 0 0 0 0 0 0 0 0 127 0" result="hardAlpha"/>
<feOffset dx="7" dy="8"/>
<feGaussianBlur stdDeviation="2"/>
<feComposite in2="hardAlpha" operator="arithmetic" k2="-1" k3="1"/>
<feColorMatrix type="matrix" values="0 0 0 0 1 0 0 0 0 1 0 0 0 0 1 0 0 0 0.25 0"/>
<feBlend mode="normal" in2="shape" result="effect1_innerShadow_21_2"/>
<feColorMatrix in="SourceAlpha" type="matrix" values="0 0 0 0 0 0 0 0 0 0 0 0 0 0 0 0 0 0 127 0" result="hardAlpha"/>
<feOffset dx="2" dy="2"/>
<feGaussianBlur stdDeviation="1.7"/>
<feComposite in2="hardAlpha" operator="arithmetic" k2="-1" k3="1"/>
<feColorMatrix type="matrix" values="0 0 0 0 0.954167 0 0 0 0 0.83357 0 0 0 0 0.747431 0 0 0 0.25 0"/>
<feBlend mode="normal" in2="effect1_innerShadow_21_2" result="effect2_innerShadow_21_2"/>
<feGaussianBlur stdDeviation="2" result="effect3_foregroundBlur_21_2"/>
</filter>
<filter id="filter9_f_21_2" x="78.0438" y="164.821" width="24.5344" height="25.6414" filterUnits="userSpaceOnUse" color-interpolation-filters="sRGB">
<feFlood flood-opacity="0" result="BackgroundImageFix"/>
<feBlend mode="normal" in="SourceGraphic" in2="BackgroundImageFix" result="shape"/>
<feGaussianBlur stdDeviation="2" result="effect1_foregroundBlur_21_2"/>
</filter>
<filter id="filter10_f_21_2" x="78.8107" y="177.1" width="26.1754" height="25.8572" filterUnits="userSpaceOnUse" color-interpolation-filters="sRGB">
<feFlood flood-opacity="0" result="BackgroundImageFix"/>
<feBlend mode="normal" in="SourceGraphic" in2="BackgroundImageFix" result="shape"/>
<feGaussianBlur stdDeviation="2" result="effect1_foregroundBlur_21_2"/>
</filter>
<filter id="filter11_i_21_2" x="227" y="108" width="82.5656" height="46.7283" filterUnits="userSpaceOnUse" color-interpolation-filters="sRGB">
<feFlood flood-opacity="0" result="BackgroundImageFix"/>
<feBlend mode="normal" in="SourceGraphic" in2="BackgroundImageFix" result="shape"/>
<feColorMatrix in="SourceAlpha" type="matrix" values="0 0 0 0 0 0 0 0 0 0 0 0 0 0 0 0 0 0 127 0" result="hardAlpha"/>
<feOffset dx="5" dy="6"/>
<feGaussianBlur stdDeviation="2"/>
<feComposite in2="hardAlpha" operator="arithmetic" k2="-1" k3="1"/>
<feColorMatrix type="matrix" values="0 0 0 0 1 0 0 0 0 0.921569 0 0 0 0 0.921569 0 0 0 1 0"/>
<feBlend mode="normal" in2="shape" result="effect1_innerShadow_21_2"/>
</filter>
<filter id="filter12_f_21_2" x="265.069" y="112.283" width="41.9944" height="45.4041" filterUnits="userSpaceOnUse" color-interpolation-filters="sRGB">
<feFlood flood-opacity="0" result="BackgroundImageFix"/>
<feBlend mode="normal" in="SourceGraphic" in2="BackgroundImageFix" result="shape"/>
<feGaussianBlur stdDeviation="1.4" result="effect1_foregroundBlur_21_2"/>
</filter>
<filter id="filter13_f_21_2" x="0.718239" y="0.00922394" width="406.404" height="314.46" filterUnits="userSpaceOnUse" color-interpolation-filters="sRGB">
<feFlood flood-opacity="0" result="BackgroundImageFix"/>
<feBlend mode="normal" in="SourceGraphic" in2="BackgroundImageFix" result="shape"/>
<feGaussianBlur stdDeviation="57.3" result="effect1_foregroundBlur_21_2"/>
</filter>
<filter id="filter14_i_21_2" x="282.569" y="161.959" width="15.6265" height="19.3554" filterUnits="userSpaceOnUse" color-interpolation-filters="sRGB">
<feFlood flood-opacity="0" result="BackgroundImageFix"/>
<feBlend mode="normal" in="SourceGraphic" in2="BackgroundImageFix" result="shape"/>
<feColorMatrix in="SourceAlpha" type="matrix" values="0 0 0 0 0 0 0 0 0 0 0 0 0 0 0 0 0 0 127 0" result="hardAlpha"/>
<feOffset dx="9" dy="7"/>
<feGaussianBlur stdDeviation="2"/>
<feComposite in2="hardAlpha" operator="arithmetic" k2="-1" k3="1"/>
<feColorMatrix type="matrix" values="0 0 0 0 0 0 0 0 0 0 0 0 0 0 0 0 0 0 1 0"/>
<feBlend mode="normal" in2="shape" result="effect1_innerShadow_21_2"/>
</filter>
<filter id="filter15_if_21_2" x="177.769" y="115.721" width="76.675" height="12.4131" filterUnits="userSpaceOnUse" color-interpolation-filters="sRGB">
<feFlood flood-opacity="0" result="BackgroundImageFix"/>
<feBlend mode="normal" in="SourceGraphic" in2="BackgroundImageFix" result="shape"/>
<feColorMatrix in="SourceAlpha" type="matrix" values="0 0 0 0 0 0 0 0 0 0 0 0 0 0 0 0 0 0 127 0" result="hardAlpha"/>
<feOffset dy="2"/>
<feGaussianBlur stdDeviation="1"/>
<feComposite in2="hardAlpha" operator="arithmetic" k2="-1" k3="1"/>
<feColorMatrix type="matrix" values="0 0 0 0 0.882353 0 0 0 0 0.717647 0 0 0 0 0.721569 0 0 0 1 0"/>
<feBlend mode="normal" in2="shape" result="effect1_innerShadow_21_2"/>
<feGaussianBlur stdDeviation="0.4" result="effect2_foregroundBlur_21_2"/>
</filter>
<filter id="filter16_f_21_2" x="233.026" y="274.981" width="60.799" height="39.6969" filterUnits="userSpaceOnUse" color-interpolation-filters="sRGB">
<feFlood flood-opacity="0" result="BackgroundImageFix"/>
<feBlend mode="normal" in="SourceGraphic" in2="BackgroundImageFix" result="shape"/>
<feGaussianBlur stdDeviation="4.45" result="effect1_foregroundBlur_21_2"/>
</filter>
<filter id="filter17_f_21_2" x="133.9" y="273.128" width="135.228" height="53.944" filterUnits="userSpaceOnUse" color-interpolation-filters="sRGB">
<feFlood flood-opacity="0" result="BackgroundImageFix"/>
<feBlend mode="normal" in="SourceGraphic" in2="BackgroundImageFix" result="shape"/>
<feGaussianBlur stdDeviation="3.05" result="effect1_foregroundBlur_21_2"/>
</filter>
<filter id="filter18_f_21_2" x="227.762" y="265.597" width="72.7656" height="44.0762" filterUnits="userSpaceOnUse" color-interpolation-filters="sRGB">
<feFlood flood-opacity="0" result="BackgroundImageFix"/>
<feBlend mode="normal" in="SourceGraphic" in2="BackgroundImageFix" result="shape"/>
<feGaussianBlur stdDeviation="4.45" result="effect1_foregroundBlur_21_2"/>
</filter>
<filter id="filter19_f_21_2" x="114.15" y="261.022" width="77.8938" height="83.2562" filterUnits="userSpaceOnUse" color-interpolation-filters="sRGB">
<feFlood flood-opacity="0" result="BackgroundImageFix"/>
<feBlend mode="normal" in="SourceGraphic" in2="BackgroundImageFix" result="shape"/>
<feGaussianBlur stdDeviation="12.1" result="effect1_foregroundBlur_21_2"/>
</filter>
<filter id="filter20_f_21_2" x="305.9" y="179.628" width="34.8636" height="61.7" filterUnits="userSpaceOnUse" color-interpolation-filters="sRGB">
<feFlood flood-opacity="0" result="BackgroundImageFix"/>
<feBlend mode="normal" in="SourceGraphic" in2="BackgroundImageFix" result="shape"/>
<feGaussianBlur stdDeviation="1.05" result="effect1_foregroundBlur_21_2"/>
</filter>
<filter id="filter21_f_21_2" x="324.6" y="180.328" width="15.0756" height="60.3" filterUnits="userSpaceOnUse" color-interpolation-filters="sRGB">
<feFlood flood-opacity="0" result="BackgroundImageFix"/>
<feBlend mode="normal" in="SourceGraphic" in2="BackgroundImageFix" result="shape"/>
<feGaussianBlur stdDeviation="0.7" result="effect1_foregroundBlur_21_2"/>
</filter>
<filter id="filter22_i_21_2" x="329" y="201.728" width="9.08301" height="22.6505" filterUnits="userSpaceOnUse" color-interpolation-filters="sRGB">
<feFlood flood-opacity="0" result="BackgroundImageFix"/>
<feBlend mode="normal" in="SourceGraphic" in2="BackgroundImageFix" result="shape"/>
<feColorMatrix in="SourceAlpha" type="matrix" values="0 0 0 0 0 0 0 0 0 0 0 0 0 0 0 0 0 0 127 0" result="hardAlpha"/>
<feOffset dx="4" dy="10"/>
<feGaussianBlur stdDeviation="2"/>
<feComposite in2="hardAlpha" operator="arithmetic" k2="-1" k3="1"/>
<feColorMatrix type="matrix" values="0 0 0 0 0 0 0 0 0 0 0 0 0 0 0 0 0 0 1 0"/>
<feBlend mode="normal" in2="shape" result="effect1_innerShadow_21_2"/>
</filter>
<filter id="filter23_f_21_2" x="231.448" y="125.229" width="57.7744" height="67.1463" filterUnits="userSpaceOnUse" color-interpolation-filters="sRGB">
<feFlood flood-opacity="0" result="BackgroundImageFix"/>
<feBlend mode="normal" in="SourceGraphic" in2="BackgroundImageFix" result="shape"/>
<feGaussianBlur stdDeviation="5.75" result="effect1_foregroundBlur_21_2"/>
</filter>
<filter id="filter24_ii_21_2" x="224.5" y="121.728" width="48.2678" height="62.3639" filterUnits="userSpaceOnUse" color-interpolation-filters="sRGB">
<feFlood flood-opacity="0" result="BackgroundImageFix"/>
<feBlend mode="normal" in="SourceGraphic" in2="BackgroundImageFix" result="shape"/>
<feColorMatrix in="SourceAlpha" type="matrix" values="0 0 0 0 0 0 0 0 0 0 0 0 0 0 0 0 0 0 127 0" result="hardAlpha"/>
<feOffset dx="-3"/>
<feGaussianBlur stdDeviation="1.9"/>
<feComposite in2="hardAlpha" operator="arithmetic" k2="-1" k3="1"/>
<feColorMatrix type="matrix" values="0 0 0 0 0.541176 0 0 0 0 0.27451 0 0 0 0 0.32549 0 0 0 1 0"/>
<feBlend mode="normal" in2="shape" result="effect1_innerShadow_21_2"/>
<feColorMatrix in="SourceAlpha" type="matrix" values="0 0 0 0 0 0 0 0 0 0 0 0 0 0 0 0 0 0 127 0" result="hardAlpha"/>
<feOffset dx="1" dy="4"/>
<feGaussianBlur stdDeviation="4.05"/>
<feComposite in2="hardAlpha" operator="arithmetic" k2="-1" k3="1"/>
<feColorMatrix type="matrix" values="0 0 0 0 0.996078 0 0 0 0 0.921569 0 0 0 0 0.905882 0 0 0 1 0"/>
<feBlend mode="normal" in2="effect1_innerShadow_21_2" result="effect2_innerShadow_21_2"/>
</filter>
<filter id="filter25_f_21_2" x="216.6" y="146.829" width="38.8" height="45.8" filterUnits="userSpaceOnUse" color-interpolation-filters="sRGB">
<feFlood flood-opacity="0" result="BackgroundImageFix"/>
<feBlend mode="normal" in="SourceGraphic" in2="BackgroundImageFix" result="shape"/>
<feGaussianBlur stdDeviation="3.2" result="effect1_foregroundBlur_21_2"/>
</filter>
<filter id="filter26_f_21_2" x="221.984" y="118.829" width="45.9158" height="62.3" filterUnits="userSpaceOnUse" color-interpolation-filters="sRGB">
<feFlood flood-opacity="0" result="BackgroundImageFix"/>
<feBlend mode="normal" in="SourceGraphic" in2="BackgroundImageFix" result="shape"/>
<feGaussianBlur stdDeviation="2.7" result="effect1_foregroundBlur_21_2"/>
</filter>
<filter id="filter27_f_21_2" x="167.7" y="289.428" width="35.6" height="31.1" filterUnits="userSpaceOnUse" color-interpolation-filters="sRGB">
<feFlood flood-opacity="0" result="BackgroundImageFix"/>
<feBlend mode="normal" in="SourceGraphic" in2="BackgroundImageFix" result="shape"/>
<feGaussianBlur stdDeviation="4.9" result="effect1_foregroundBlur_21_2"/>
</filter>
<linearGradient id="paint0_linear_21_2" x1="152.937" y1="297.328" x2="201.2" y2="303.585" gradientUnits="userSpaceOnUse">
<stop stop-color="#ECAEB1"/>
<stop offset="1" stop-color="#AA6577"/>
</linearGradient>
<linearGradient id="paint1_linear_21_2" x1="145.5" y1="303.991" x2="193.762" y2="310.247" gradientUnits="userSpaceOnUse">
<stop stop-color="#ECAEB1"/>
<stop offset="1" stop-color="#B36C7E"/>
</linearGradient>
<linearGradient id="paint2_linear_21_2" x1="246.494" y1="308.46" x2="284.031" y2="295.947" gradientUnits="userSpaceOnUse">
<stop stop-color="#ECAEB1"/>
<stop offset="1" stop-color="#B0697B"/>
</linearGradient>
<radialGradient id="paint3_radial_21_2" cx="0" cy="0" r="1" gradientUnits="userSpaceOnUse" gradientTransform="translate(115.113 162.974) rotate(30.0968) scale(209.187 235.286)">
<stop stop-color="#FCF9F9"/>
<stop offset="0.49" stop-color="#D09199"/>
<stop offset="1" stop-color="#9D636F"/>
</radialGradient>
<linearGradient id="paint4_linear_21_2" x1="323.332" y1="181.728" x2="323.332" y2="239.228" gradientUnits="userSpaceOnUse">
<stop stop-color="#F1AEB5"/>
<stop offset="0.155" stop-color="#FACECD"/>
<stop offset="0.505" stop-color="#F8BEC2"/>
<stop offset="1" stop-color="#BD7E91"/>
</linearGradient>
<radialGradient id="paint5_radial_21_2" cx="0" cy="0" r="1" gradientUnits="userSpaceOnUse" gradientTransform="translate(237.5 150.729) rotate(30.4655) scale(29.5846 38.2654)">
<stop stop-color="#FDEEE7"/>
<stop offset="1" stop-color="#C17E87"/>
</radialGradient>
</defs>
</svg>
